<svg width="48" height="48" xmlns="http://www.w3.org/2000/svg" xml:space="preserve" version="1.1">

 <g>
  <title>Layer 1</title>
  <g stroke="null" id="Icons">
   <g stroke="null" id="svg_1">
    <path stroke="null" id="svg_2" fill="#F4F4F4" d="m28.80517,43.75631c-5.09238,4.26587 -9.72153,0 -9.72153,0c3.265,-2.21656 6.50584,-2.25068 9.72153,0z"/>
    <path stroke="null" id="svg_3" fill="#F4F4F4" d="m23.46576,1.86211c0,0 -17.75996,-0.61839 -17.75996,15.28373l0,3.30787l36.55844,0l0,-4.59516c0,0 0.83516,-14.00108 -18.79848,-13.99644z"/>
    <path stroke="null" id="svg_4" fill="#F4F4F4" d="m5.7058,20.45372c0,0 -5.82607,4.65889 -3.18137,11.29622l7.65564,12.89175c0,0 2.36637,2.61661 6.26367,0.44676c0,0 2.64471,-2.04228 7.10701,-2.14645c0,0 4.37661,-0.15108 7.0908,1.82736c0,0 4.87184,2.99952 7.51656,0.12755l7.09881,-12.3173c0,0 3.41025,-7.21178 -2.99266,-12.1259"/>
    <path stroke="null" id="svg_5" fill="#464747" d="m6.83944,20.45372c0,0 2.50547,6.31825 7.23807,6.12673c0,0 4.33477,-0.1967 6.05495,-1.85076c0,0 3.86757,-2.92302 7.86437,-0.19153c0,0 6.47252,4.33981 9.60444,0.95736l4.03654,-5.04181"/>
    <ellipse stroke="null" id="svg_6" fill="#464747" ry="1.72315" rx="1.87909" cy="41.76974" cx="34.95658"/>
    <path stroke="#303030" id="svg_7" stroke-miterlimit="10" stroke-linejoin="round" stroke-linecap="round" stroke-width="0.75" fill="none" d="m23.46576,1.86211c0,0 -17.75996,-0.61839 -17.75996,15.28373l0,3.30787l36.55844,0l0,-4.59516c0,0 0.83516,-14.00108 -18.79848,-13.99644z"/>
    <line stroke="#303030" id="svg_8" stroke-miterlimit="10" stroke-linejoin="round" stroke-linecap="round" stroke-width="0.75" fill="none" y2="17.14585" y1="17.14585" x2="42.26423" x1="5.7058"/>
    <path stroke="#303030" id="svg_9" stroke-miterlimit="10" stroke-linejoin="round" stroke-linecap="round" stroke-width="0.75" fill="none" d="m5.7058,20.45372c0,0 -5.82607,4.65889 -3.18137,11.29622l7.65564,12.89175c0,0 2.36637,2.61661 6.26367,0.44676c0,0 2.64471,-2.04228 7.10701,-2.14645c0,0 4.37661,-0.15108 7.0908,1.82736c0,0 4.87184,2.99952 7.51656,0.12755l7.09881,-12.3173c0,0 3.41025,-7.21178 -2.99266,-12.1259"/>
    <path stroke="#303030" id="svg_10" stroke-miterlimit="10" stroke-linejoin="round" stroke-linecap="round" stroke-width="0.75" fill="none" d="m6.83944,20.45372c0,0 2.50547,6.31825 7.23807,6.12673c0,0 4.33477,-0.1967 6.05495,-1.85076c0,0 3.86757,-2.92302 7.86437,-0.19153c0,0 6.47252,4.33981 9.60444,0.95736l4.03654,-5.04181"/>
    <path stroke="#303030" id="svg_11" stroke-miterlimit="10" stroke-linejoin="round" stroke-linecap="round" stroke-width="0.75" fill="none" d="m9.50769,24.52459c0,0 -2.25066,1.6091 -1.13717,3.45999l6.48366,9.03721c0.24578,0.34234 0.75905,0.41988 1.1032,0.15832c1.34787,-1.02444 4.69074,-3.24558 8.28124,-3.19648c0,0 3.58147,-0.05764 7.63987,3.16662c0.34486,0.27397 0.87081,0.22784 1.12815,-0.11774l6.40418,-8.6013c0,0 1.32235,-2.06943 -0.76567,-3.90661"/>
    <ellipse stroke="#303030" id="svg_12" stroke-miterlimit="10" stroke-linejoin="round" stroke-linecap="round" stroke-width="0.75" fill="none" ry="1.72315" rx="1.87909" cy="41.76974" cx="34.95658"/>
    <path stroke="#303030" id="svg_13" stroke-miterlimit="10" stroke-linejoin="round" stroke-linecap="round" stroke-width="0.75" fill="none" d="m9.34124,17.14585c0,0 -0.54442,-10.58711 11.16031,-11.50235"/>
    <line stroke="#303030" id="svg_14" stroke-miterlimit="10" stroke-linejoin="round" stroke-linecap="round" stroke-width="0.75" fill="none" y2="5.2275" y1="5.2275" x2="26.03633" x1="23.31426"/>
    <line stroke="#303030" id="svg_15" stroke-miterlimit="10" stroke-linejoin="round" stroke-linecap="round" stroke-width="0.75" fill="none" y2="38.17597" y1="30.68764" x2="11.42815" x1="6.25627"/>
    <line stroke="#303030" id="svg_16" stroke-miterlimit="10" stroke-linejoin="round" stroke-linecap="round" stroke-width="0.75" fill="none" y2="33.29739" y1="29.3564" x2="39.82374" x1="42.26423"/>
    <line stroke="#303030" id="svg_17" stroke-miterlimit="10" stroke-linejoin="round" stroke-linecap="round" stroke-width="0.75" fill="none" y2="36.26228" y1="34.84781" x2="37.92243" x1="38.73899"/>
    <line stroke="#303030" id="svg_18" stroke-miterlimit="10" stroke-linejoin="round" stroke-linecap="round" stroke-width="0.75" fill="none" y2="20.13736" y1="17.14585" x2="14.47789" x1="14.47789"/>
    <line stroke="#303030" id="svg_19" stroke-miterlimit="10" stroke-linejoin="round" stroke-linecap="round" stroke-width="0.75" fill="none" y2="20.13736" y1="17.14585" x2="16.94418" x1="16.94418"/>
    <line stroke="#303030" id="svg_20" stroke-miterlimit="10" stroke-linejoin="round" stroke-linecap="round" stroke-width="0.75" fill="none" y2="20.13736" y1="17.14585" x2="21.58321" x1="21.58321"/>
    <line stroke="#303030" id="svg_21" stroke-miterlimit="10" stroke-linejoin="round" stroke-linecap="round" stroke-width="0.75" fill="none" y2="20.13736" y1="17.14585" x2="34.95654" x1="34.95654"/>
    <path stroke="#303030" id="svg_22" stroke-miterlimit="10" stroke-linejoin="round" stroke-linecap="round" stroke-width="0.75" fill="none" d="m19.08366,43.7563c0,0 4.62915,4.26588 9.72154,0"/>
   </g>
  </g>
 </g>
</svg>