<svg width="48" height="48" xmlns="http://www.w3.org/2000/svg" version="1.1" xml:space="preserve">
 <g>
  <title>Layer 1</title>
  <g id="Padding__x26__Artboard"/>
  <g stroke="null" id="svg_3">
   <path stroke="null" d="m22.19757,8.87781c-0.18894,-1.65586 -0.19701,-2.96543 -0.17439,-3.67384l-5.77704,-0.64802c0.06848,0.88923 0.12474,2.48885 -0.08744,4.50316l6.03886,-0.1813z" fill="#ffffff" id="svg_1"/>
   <path stroke="null" d="m6.44117,26.38181l0.00098,0.00062l1.90771,4.26989c3.69275,-1.58997 8.8614,-2.8572 15.18165,-1.88755c2.60207,0.39936 4.83273,1.18255 6.75999,2.16734l3.0549,-3.89968c-2.08991,-1.2604 -3.93048,-2.78106 -5.48195,-4.59188c-3.5301,-4.12152 -4.94597,-8.82271 -5.50311,-12.36795l-6.35827,0.19095c-0.71604,4.75535 -2.98425,11.20793 -9.5619,16.11826zm11.45245,-5.6679c0.64874,0 1.17434,0.52466 1.17434,1.1717c0,0.64716 -0.5256,1.17182 -1.17434,1.17182c-0.64862,0 -1.17422,-0.52466 -1.17422,-1.17182c0,-0.64704 0.5256,-1.1717 1.17422,-1.1717z" fill="#ffffff" id="svg_2"/>
   <path stroke="null" d="m39.73022,6.05037l-0.54381,0.76649c-0.09465,0.1347 -0.2436,0.20742 -0.40258,0.23171c1.38774,1.88377 4.37353,6.13695 4.98108,8.64897c0.07826,0.32211 -0.12033,0.64618 -0.44317,0.72331c-0.04696,0.01171 -0.09489,0.01757 -0.14087,0.01757c-0.27197,0 -0.51752,-0.18449 -0.58404,-0.45975c-0.68372,-2.8212 -4.94303,-8.44776 -5.4229,-9.07515l-8.36981,-0.93891c-0.01639,1.98237 0.4828,17.19384 19.1531,18.04575c-0.00882,-6.91223 -3.01004,-13.40777 -8.22699,-17.95999zm4.58645,12.18018l0.27098,1.67599c0.05283,0.32699 -0.17022,0.63545 -0.49797,0.68816c-0.03228,0.00488 -0.06458,0.00684 -0.09685,0.00684c-0.28958,0 -0.54491,-0.20888 -0.59286,-0.50367l-0.27098,-1.67599c-0.05283,-0.32699 0.17022,-0.63545 0.49797,-0.68816c0.31697,-0.04784 0.63688,0.16886 0.68971,0.49683z" fill="#ffffff" id="svg_4"/>
   <path stroke="null" d="m23.34952,29.94974c-12.11564,-1.854 -19.99763,5.00575 -20.45791,5.41792c0.67601,1.24868 1.47065,2.4221 2.35026,3.52523c5.9469,-4.52025 11.68615,-6.22211 17.07455,-5.01429c7.76154,1.74334 12.27975,8.87554 13.45445,10.96406c1.28856,-0.72928 2.50545,-1.56764 3.63161,-2.51398c-0.79742,-1.9105 -5.02936,-10.68709 -16.05295,-12.37895z" fill="#ffffff" id="svg_5"/>
   <path stroke="null" d="m15.03059,4.41955l-2.11474,-0.23719c-0.18882,-0.02147 -0.35708,-0.1308 -0.45295,-0.29576l-0.33836,-0.58237c-0.4696,0.26806 -0.91716,0.56248 -1.36376,0.8586c0.29386,2.42076 1.15037,14.80873 -10.718,20.23504c0.0208,1.39658 0.16191,2.76336 0.41408,4.09283c15.39501,-6.98444 14.83115,-21.3556 14.57373,-24.07115z" fill="#ffffff" id="svg_6"/>
   <path stroke="null" d="m31.35833,31.51702c5.48183,3.21166 8.11054,8.03913 8.98028,9.96256c3.00659,-2.80754 5.30489,-6.35986 6.55224,-10.37961c-4.82135,-0.43242 -8.99262,-1.59532 -12.48642,-3.47142l-3.0461,3.88847zm6.86384,-0.20267c0.6485,0 1.17434,0.52466 1.17434,1.1717c0,0.64716 -0.52584,1.17182 -1.17434,1.17182c-0.64862,0 -1.17446,-0.52466 -1.17446,-1.17182c-0.00002,-0.64704 0.52584,-1.1717 1.17446,-1.1717z" fill="#ffffff" id="svg_7"/>
   <path stroke="null" d="m22.04445,35.04701c-5.00602,-1.1174 -10.39392,0.49733 -16.02386,4.76258c4.39543,4.98074 10.81313,8.14456 17.97167,8.14456c3.8516,0 7.48138,-0.93329 10.70918,-2.55106c-1.12371,-1.95786 -5.47951,-8.74806 -12.657,-10.35608zm7.77268,9.64399c-1.99184,0.64716 -3.92303,0.90778 -5.74169,0.90778c-7.29525,0 -12.77379,-4.19045 -13.05848,-4.41202c-0.26219,-0.20401 -0.30817,-0.57981 -0.10371,-0.84141c0.2025,-0.26062 0.58112,-0.3104 0.84331,-0.10347c0.08219,0.06345 8.32541,6.34863 17.68881,3.30901c0.31598,-0.10445 0.65547,0.06931 0.75721,0.38458c0.10272,0.31431 -0.06946,0.65304 -0.38545,0.75553z" fill="#ffffff" id="svg_8"/>
   <path stroke="null" d="m9.64036,4.91212c-5.72763,4.27745 -9.23964,10.90477 -9.54659,18.11664c9.92885,-4.90632 9.85267,-14.93988 9.54659,-18.11664z" fill="#ffffff" id="svg_10"/>
   <path stroke="null" d="m27.60358,5.83002l-4.37585,-0.49085c-0.04304,2.21394 0.21082,10.0963 5.56023,16.33218c4.11819,4.8015 10.31811,7.56767 18.40593,8.25571c0.38839,-1.52238 0.62698,-3.09965 0.70584,-4.72182c-6.59259,-0.30112 -11.73263,-2.36915 -15.26506,-6.16743c-4.99831,-5.37412 -5.04846,-12.27292 -5.03108,-13.20778z" fill="#ffffff" id="svg_11"/>
   <path stroke="null" d="m5.44096,27.08656c-1.3892,0.94231 -2.95303,1.81642 -4.71362,2.59914c0.38789,1.59009 0.93393,3.11478 1.62338,4.56345c0.65804,-0.5565 2.34182,-1.85436 4.90708,-3.09635l-1.81684,-4.06624z" fill="#ffffff" id="svg_12"/>
   <path stroke="null" d="m39.71599,6.07244c-7.39789,-6.76784 -19.03105,-8.03329 -27.90738,-2.62458l0.3226,2.21064l27.42348,2.45582l0.16132,-2.04189l-0.00002,0.00001z" fill="#ffffff" id="svg_16"/>
  </g>
 </g>

</svg>