<svg width="48" height="48" xmlns="http://www.w3.org/2000/svg" version="1.1" xml:space="preserve">
 <g id="Layer_1">
  <title>Layer 1</title>
  <g stroke="null" id="svg_5">
   <path stroke="null" d="m26.21448,20.01624c-4.39502,0 -7.97181,3.50676 -7.97181,7.81571s3.5768,7.81413 7.97181,7.81413s7.9702,-3.50517 7.9702,-7.81413s-3.57518,-7.81571 -7.9702,-7.81571zm0,13.09235c-2.96915,0 -5.38365,-2.36725 -5.38365,-5.27668c0,-2.911 2.41453,-5.27823 5.38365,-5.27823c2.96753,0 5.38207,2.36725 5.38207,5.27823c0,2.90942 -2.41453,5.27668 -5.38207,5.27668z" fill="#ffffff" id="svg_3"/>
   <polygon stroke="null" points="45.38058090209961,46.00884695351124 45.38761901855469,45.98659963905811 45.402099609375,45.97912283241749 46.73313903808594,44.1363150626421 0.7944023609161377,39.50738210976124 2.144937038421631,41.79306860268116 2.1720638275146484,41.8147704154253 2.1750714778900146,41.843914702534676 2.9662046432495117,43.182755187153816 44.14337921142578,47.72182150185108 " fill="#ffffff" id="svg_9"/>
   <path stroke="null" d="m18.89535,15.87571l0.11595,-1.93463l0.47362,-9.30449c0.83814,-0.34043 1.4289,-1.14738 1.4289,-2.09202c0,-1.2518 -1.03505,-2.26638 -2.31185,-2.26638c-1.2766,0 -2.31185,1.01459 -2.31185,2.26638c0,0.85798 0.50516,1.57822 1.22235,1.9632l-0.50599,9.93769l-0.08761,1.94073c-6.32849,2.02937 -13.61407,7.46424 -16.71563,21.11571l47.44662,4.7796c0.45071,-4.34165 1.16707,-23.2036 -19.83427,-26.76648c-0.24616,-0.04629 -1.9845,-0.31067 -4.42435,-0.2232l0.11533,-1.90429l0.1949,-2.87553c0.80278,-0.35541 1.36681,-1.13889 1.36681,-2.05874c0,-1.2518 -1.03485,-2.26638 -2.31165,-2.26638s-2.31185,1.01459 -2.31185,2.26638c0,0.88318 0.52929,1.62767 1.28082,2.0018l-0.20919,3.08792l-0.15655,1.90565m-10.92964,18.58652c-1.45261,0 -2.63034,-1.15467 -2.63034,-2.57903c0,-1.42458 1.17774,-2.57903 2.63034,-2.57903c1.45303,0 2.63074,1.15448 2.63074,2.57903c0,1.42435 -1.17774,2.57903 -2.63074,2.57903zm15.78425,3.54633c-5.48495,0 -9.94588,-4.37358 -9.94588,-9.74954c0,-5.37754 4.46093,-9.75112 9.94588,-9.75112c5.48334,0 9.94427,4.37358 9.94427,9.75112c0,5.37596 -4.46093,9.74954 -9.94427,9.74954z" fill="#ffffff" id="svg_13"/>
  </g>
 </g>

</svg>